<svg width="169.883" height="30.274" viewBox="0 0 169.883 30.274" xmlns="http://www.w3.org/2000/svg"><g id="svgGroup" stroke-linecap="round" fill-rule="evenodd" font-size="9pt" stroke="#000" stroke-width="0.25mm" fill="#6ff2f7" style="stroke:#6ff2f7;stroke-width:0.25mm;fill:#6ff2f7"><path d="M 26.348 0 L 33.281 0 Q 32.09 1.035 31.348 2.891 A 28.011 28.011 0 0 0 31.03 3.71 A 33.85 33.85 0 0 0 30.84 4.238 A 12.196 12.196 0 0 0 30.708 4.637 Q 30.567 5.088 30.405 5.7 A 44.928 44.928 0 0 0 30.254 6.289 L 29.551 9.336 A 142.069 142.069 0 0 0 29.136 11.172 A 180.07 180.07 0 0 0 28.711 13.164 A 10484.101 10484.101 0 0 1 28.18 15.701 Q 26.542 23.526 26.22 24.994 A 35.661 35.661 0 0 1 26.182 25.166 A 11.751 11.751 0 0 0 25.938 26.695 A 9.796 9.796 0 0 0 25.898 27.568 A 5.605 5.605 0 0 0 26.155 29.218 A 6.924 6.924 0 0 0 26.406 29.902 L 19.57 29.883 A 4.547 4.547 0 0 0 19.868 29.353 Q 20.008 29.057 20.078 28.777 A 2.407 2.407 0 0 0 20.127 28.525 A 8.19 8.19 0 0 0 20.181 28.009 Q 20.215 27.546 20.215 26.973 Q 20.215 26.055 19.902 24.238 A 76.731 76.731 0 0 0 19.592 22.552 Q 19.424 21.692 19.221 20.741 A 130.895 130.895 0 0 0 19.082 20.098 L 16.602 9.551 Q 14.074 20.69 13.408 23.72 A 110.249 110.249 0 0 0 13.232 24.531 A 26.003 26.003 0 0 0 13.021 25.641 Q 12.852 26.66 12.834 27.39 A 6.891 6.891 0 0 0 12.832 27.559 A 5.806 5.806 0 0 0 13.042 29.079 A 7.306 7.306 0 0 0 13.32 29.902 L 6.484 29.883 A 3.859 3.859 0 0 0 6.925 28.842 Q 7.129 28.087 7.129 27.109 A 13.688 13.688 0 0 0 7.01 25.514 Q 6.575 21.953 4.551 13.672 A 172.741 172.741 0 0 0 3.576 9.823 Q 1.997 3.902 0.731 1.278 A 8.762 8.762 0 0 0 0 0 L 6.934 0 Q 6.616 0.776 6.585 1.831 A 7.877 7.877 0 0 0 6.582 2.061 A 16.387 16.387 0 0 0 6.643 3.442 A 21.52 21.52 0 0 0 6.787 4.688 A 60.376 60.376 0 0 0 7.009 6.106 Q 7.152 6.956 7.334 7.91 A 191.419 191.419 0 0 0 7.698 9.771 A 234.649 234.649 0 0 0 8.105 11.758 L 10.762 23.438 A 134.031 134.031 0 0 0 11.123 21.846 A 182.206 182.206 0 0 0 11.504 20.078 A 996.029 996.029 0 0 0 12.005 17.63 Q 12.622 14.593 12.922 12.994 A 95.204 95.204 0 0 0 12.988 12.637 L 13.652 8.906 A 95.404 95.404 0 0 0 13.881 7.509 Q 14.175 5.609 14.227 4.632 A 7.138 7.138 0 0 0 14.238 4.258 Q 14.238 3.047 14.092 1.934 A 4.384 4.384 0 0 0 13.763 0.73 A 3.823 3.823 0 0 0 13.34 0 L 20.645 0 A 7.001 7.001 0 0 0 19.889 2.45 A 8.838 8.838 0 0 0 19.824 3.535 Q 19.824 5.02 20.762 9.551 L 23.027 20.156 L 23.848 23.691 L 25.488 15.879 Q 25.898 13.77 26.27 11.719 L 26.934 7.93 A 116.404 116.404 0 0 0 27.177 6.42 Q 27.559 3.943 27.559 3.027 A 4.795 4.795 0 0 0 27.377 1.676 A 3.663 3.663 0 0 0 26.348 0 Z" id="0" vector-effect="non-scaling-stroke"/><path d="M 48.612 24.036 A 1.472 1.472 0 0 0 48.027 23.242 Q 47.334 24.746 46.556 25.812 A 8.503 8.503 0 0 1 45.488 27.031 A 7.016 7.016 0 0 1 44.803 27.596 Q 43.793 28.32 42.871 28.32 Q 42.198 28.32 41.671 28.18 A 2.772 2.772 0 0 1 40.898 27.852 Q 39.39 26.875 38.77 24.494 A 12.81 12.81 0 0 1 38.438 22.598 A 20.861 20.861 0 0 0 40.387 22.464 Q 41.935 22.282 43.225 21.862 A 9.694 9.694 0 0 0 46.191 20.332 A 7.946 7.946 0 0 0 46.357 20.201 A 6.804 6.804 0 0 0 48.232 17.861 A 6.711 6.711 0 0 0 48.706 16.538 A 7.947 7.947 0 0 0 48.926 14.639 A 4.344 4.344 0 0 0 48.594 12.944 A 4.78 4.78 0 0 0 47.617 11.484 A 5.434 5.434 0 0 0 44.922 9.978 A 8.129 8.129 0 0 0 43.008 9.766 A 11.938 11.938 0 0 0 40.821 9.957 A 8.237 8.237 0 0 0 36.289 12.324 A 8.463 8.463 0 0 0 35.685 13.018 Q 34.461 14.589 33.981 16.737 A 13.802 13.802 0 0 0 33.672 19.746 A 20.459 20.459 0 0 0 33.728 21.285 Q 34.001 24.902 35.605 27.188 A 6.944 6.944 0 0 0 39.233 29.877 A 8.978 8.978 0 0 0 41.973 30.273 Q 43.882 30.273 45.273 29.788 A 5.451 5.451 0 0 0 47.324 28.555 A 5.157 5.157 0 0 0 47.811 28.011 A 3.979 3.979 0 0 0 48.418 26.914 Q 48.73 26.035 48.73 24.873 Q 48.73 24.396 48.612 24.036 Z M 38.32 20.137 L 38.32 20.742 A 10.085 10.085 0 0 0 40.763 20.304 Q 43.912 19.281 44.402 16.037 A 8.515 8.515 0 0 0 44.492 14.766 A 5.403 5.403 0 0 0 44.407 13.765 Q 44.305 13.226 44.082 12.819 A 2.201 2.201 0 0 0 43.242 11.953 A 1.724 1.724 0 0 0 42.831 11.797 Q 42.634 11.748 42.401 11.73 A 3.715 3.715 0 0 0 42.109 11.719 A 2.493 2.493 0 0 0 41.188 11.902 A 3.329 3.329 0 0 0 40.693 12.148 A 2.847 2.847 0 0 0 40.046 12.693 Q 39.805 12.962 39.592 13.312 A 5.438 5.438 0 0 0 39.453 13.555 A 7.542 7.542 0 0 0 38.856 15.112 Q 38.32 17.075 38.32 20.137 Z" id="1" vector-effect="non-scaling-stroke"/><path d="M 59.316 29.883 L 53.711 29.883 Q 54.602 26.822 54.609 19.4 A 124.453 124.453 0 0 0 54.609 19.277 Q 54.609 13.926 53.672 11.973 Q 53.438 11.484 53.145 11.055 L 52.5 10.156 L 59.277 10.156 A 31.184 31.184 0 0 0 59.113 10.831 Q 58.954 11.522 58.887 11.992 L 58.75 13.164 A 8.993 8.993 0 0 1 60.36 11.309 A 6.202 6.202 0 0 1 64.521 9.766 Q 68.027 9.766 69.063 13.574 A 8.737 8.737 0 0 1 70.572 11.636 A 6.91 6.91 0 0 1 73.145 10.078 A 5.539 5.539 0 0 1 74.291 9.817 A 7.169 7.169 0 0 1 75.166 9.766 A 4.543 4.543 0 0 1 76.47 9.948 A 4.019 4.019 0 0 1 77.197 10.244 A 4.361 4.361 0 0 1 78.73 11.602 A 6.27 6.27 0 0 1 79.582 13.444 Q 79.961 14.753 79.961 16.465 L 79.961 18.555 A 345.637 345.637 0 0 0 79.967 20.639 Q 79.992 24.815 80.127 26.045 A 150.559 150.559 0 0 0 80.195 26.658 Q 80.283 27.429 80.34 27.834 A 10.89 10.89 0 0 0 80.371 28.047 A 12.369 12.369 0 0 0 80.552 29.051 A 15.641 15.641 0 0 0 80.762 29.883 L 75 29.883 A 14.31 14.31 0 0 0 75.376 28.114 Q 75.837 25.161 75.858 19.796 A 132.149 132.149 0 0 0 75.859 19.277 Q 75.859 16.172 75.547 15.107 A 5.773 5.773 0 0 0 75.336 14.506 Q 75.216 14.22 75.077 13.995 A 2.2 2.2 0 0 0 74.736 13.564 Q 74.24 13.087 73.384 13.086 A 3.228 3.228 0 0 0 73.379 13.086 A 3.829 3.829 0 0 0 70.446 14.442 Q 69.856 15.092 69.375 16.055 L 69.375 18.555 A 345.637 345.637 0 0 0 69.381 20.639 Q 69.406 24.815 69.541 26.045 A 150.559 150.559 0 0 0 69.609 26.658 Q 69.697 27.429 69.754 27.834 A 10.89 10.89 0 0 0 69.785 28.047 A 12.369 12.369 0 0 0 69.966 29.051 A 15.641 15.641 0 0 0 70.176 29.883 L 64.414 29.883 A 14.658 14.658 0 0 0 64.799 28.092 Q 65.282 25.045 65.293 19.529 A 129.324 129.324 0 0 0 65.293 19.277 Q 65.293 16.094 64.98 15.068 A 5.685 5.685 0 0 0 64.768 14.481 Q 64.646 14.196 64.504 13.972 A 2.265 2.265 0 0 0 64.18 13.564 A 1.618 1.618 0 0 0 63.406 13.148 Q 63.151 13.087 62.851 13.086 A 2.984 2.984 0 0 0 62.842 13.086 A 3.744 3.744 0 0 0 61.915 13.197 A 3.181 3.181 0 0 0 61.309 13.418 Q 60.625 13.75 60.078 14.297 A 6.331 6.331 0 0 0 58.96 15.795 A 8.238 8.238 0 0 0 58.457 16.914 A 16.836 16.836 0 0 0 58.419 17.935 A 18.542 18.542 0 0 0 58.418 18.086 L 58.418 19.277 A 99.93 99.93 0 0 0 58.474 22.76 Q 58.584 25.909 58.912 27.988 A 15.452 15.452 0 0 0 59.316 29.883 Z M 68.652 18.125 L 68.73 17.773 L 68.652 18.125 Z" id="2" vector-effect="non-scaling-stroke"/><path d="M 100.039 19.453 L 99.98 23.203 A 30.035 30.035 0 0 0 100.016 24.72 Q 100.132 26.997 100.625 27.969 A 4.359 4.359 0 0 0 100.965 28.53 Q 101.18 28.828 101.427 29.045 A 2.541 2.541 0 0 0 101.543 29.141 L 102.461 29.883 L 96.797 29.883 L 96.191 27.617 A 7.175 7.175 0 0 1 91.77 30.118 A 10.691 10.691 0 0 1 89.902 30.273 A 5.619 5.619 0 0 1 88.162 30.016 A 4.604 4.604 0 0 1 86.152 28.711 Q 84.902 27.305 84.902 25.391 A 6.806 6.806 0 0 1 85.129 23.599 A 5.596 5.596 0 0 1 85.811 22.051 A 7.61 7.61 0 0 1 88.203 19.687 Q 91.133 17.871 95.566 17.793 L 95.566 17.578 Q 95.566 13.565 94.519 12.358 A 1.572 1.572 0 0 0 94.102 12.012 A 2.139 2.139 0 0 0 93.561 11.806 Q 93.312 11.746 93.019 11.727 A 4.284 4.284 0 0 0 92.744 11.719 Q 91.914 11.719 91.094 12.266 Q 90.273 12.813 89.609 13.672 A 10.414 10.414 0 0 0 88.011 16.735 A 12.578 12.578 0 0 0 87.715 17.773 A 3.253 3.253 0 0 1 86.321 16.042 Q 85.977 15.113 85.977 13.809 Q 85.977 12.617 86.289 11.133 A 4.59 4.59 0 0 0 87.528 10.968 A 4.277 4.277 0 0 0 87.695 10.918 L 89.199 10.449 A 15.158 15.158 0 0 1 92.255 9.826 A 13.341 13.341 0 0 1 93.516 9.766 A 11.584 11.584 0 0 1 94.837 9.836 Q 95.48 9.91 96.018 10.062 A 5.011 5.011 0 0 1 96.885 10.391 A 4.538 4.538 0 0 1 98.848 12.246 A 6.57 6.57 0 0 1 99.424 13.661 Q 99.87 15.195 99.993 17.553 A 36.711 36.711 0 0 1 100.039 19.453 Z M 95.566 22.598 L 95.566 19.707 Q 92.832 19.961 91.055 21.523 A 5.362 5.362 0 0 0 89.131 25.423 A 6.633 6.633 0 0 0 89.121 25.781 A 4.232 4.232 0 0 0 89.18 26.513 Q 89.249 26.904 89.398 27.217 A 2.051 2.051 0 0 0 89.678 27.656 A 1.892 1.892 0 0 0 90.24 28.122 A 1.752 1.752 0 0 0 91.074 28.32 A 3.238 3.238 0 0 0 92.597 27.934 A 3.838 3.838 0 0 0 92.695 27.881 A 4.827 4.827 0 0 0 93.841 26.976 A 5.709 5.709 0 0 0 94.102 26.68 Q 95.566 24.941 95.566 22.598 Z" id="3" vector-effect="non-scaling-stroke"/><path d="M 110.801 15.82 L 110.781 20.938 Q 110.781 25.634 111.201 28.287 A 13.113 13.113 0 0 0 111.543 29.883 L 105.781 29.883 A 15.968 15.968 0 0 0 106.181 28.094 Q 106.336 27.169 106.418 26.122 A 28.323 28.323 0 0 0 106.465 25.41 Q 106.689 20.64 106.742 17.507 A 105.787 105.787 0 0 0 106.758 15.742 Q 106.758 12.934 106.745 11.631 A 79.267 79.267 0 0 0 106.738 11.123 A 17522.89 17522.89 0 0 1 106.699 8.75 Q 106.582 4.512 106.299 3.408 Q 106.016 2.305 105.771 1.807 A 5.568 5.568 0 0 0 105.33 1.055 A 5.021 5.021 0 0 0 105.215 0.898 L 104.57 0 L 111.699 0 A 18.575 18.575 0 0 0 111.195 2.401 A 15.45 15.45 0 0 0 111.064 3.779 A 300.306 300.306 0 0 0 110.995 5.28 Q 110.955 6.193 110.928 6.973 A 304.395 304.395 0 0 0 110.86 9.119 A 343.262 343.262 0 0 0 110.84 9.863 A 284.645 284.645 0 0 0 110.816 11.873 Q 110.808 12.766 110.805 13.753 A 535.592 535.592 0 0 0 110.801 15.82 Z" id="4" vector-effect="non-scaling-stroke"/><path d="M 130.879 19.453 L 130.82 23.203 A 30.035 30.035 0 0 0 130.856 24.72 Q 130.971 26.997 131.465 27.969 A 4.359 4.359 0 0 0 131.805 28.53 Q 132.02 28.828 132.267 29.045 A 2.541 2.541 0 0 0 132.383 29.141 L 133.301 29.883 L 127.637 29.883 L 127.031 27.617 A 7.175 7.175 0 0 1 122.609 30.118 A 10.691 10.691 0 0 1 120.742 30.273 A 5.619 5.619 0 0 1 119.002 30.016 A 4.604 4.604 0 0 1 116.992 28.711 Q 115.742 27.305 115.742 25.391 A 6.806 6.806 0 0 1 115.969 23.599 A 5.596 5.596 0 0 1 116.65 22.051 A 7.61 7.61 0 0 1 119.043 19.687 Q 121.973 17.871 126.406 17.793 L 126.406 17.578 Q 126.406 13.565 125.359 12.358 A 1.572 1.572 0 0 0 124.941 12.012 A 2.139 2.139 0 0 0 124.401 11.806 Q 124.151 11.746 123.859 11.727 A 4.284 4.284 0 0 0 123.584 11.719 Q 122.754 11.719 121.934 12.266 Q 121.113 12.813 120.449 13.672 A 10.414 10.414 0 0 0 118.85 16.735 A 12.578 12.578 0 0 0 118.555 17.773 A 3.253 3.253 0 0 1 117.161 16.042 Q 116.816 15.113 116.816 13.809 Q 116.816 12.617 117.129 11.133 A 4.59 4.59 0 0 0 118.368 10.968 A 4.277 4.277 0 0 0 118.535 10.918 L 120.039 10.449 A 15.158 15.158 0 0 1 123.094 9.826 A 13.341 13.341 0 0 1 124.355 9.766 A 11.584 11.584 0 0 1 125.677 9.836 Q 126.32 9.91 126.858 10.062 A 5.011 5.011 0 0 1 127.725 10.391 A 4.538 4.538 0 0 1 129.687 12.246 A 6.57 6.57 0 0 1 130.263 13.661 Q 130.71 15.195 130.833 17.553 A 36.711 36.711 0 0 1 130.879 19.453 Z M 126.406 22.598 L 126.406 19.707 Q 123.672 19.961 121.895 21.523 A 5.362 5.362 0 0 0 119.97 25.423 A 6.633 6.633 0 0 0 119.961 25.781 A 4.232 4.232 0 0 0 120.02 26.513 Q 120.089 26.904 120.238 27.217 A 2.051 2.051 0 0 0 120.518 27.656 A 1.892 1.892 0 0 0 121.08 28.122 A 1.752 1.752 0 0 0 121.914 28.32 A 3.238 3.238 0 0 0 123.437 27.934 A 3.838 3.838 0 0 0 123.535 27.881 A 4.827 4.827 0 0 0 124.681 26.976 A 5.709 5.709 0 0 0 124.941 26.68 Q 126.406 24.941 126.406 22.598 Z" id="5" vector-effect="non-scaling-stroke"/><path d="M 141.445 29.883 L 136.133 29.883 L 136.504 28.984 Q 137.09 27.559 137.188 26.045 A 124.779 124.779 0 0 0 137.273 24.595 A 94.595 94.595 0 0 0 137.334 23.271 A 202.25 202.25 0 0 0 137.38 21.96 A 253.378 253.378 0 0 0 137.422 20.547 Q 137.52 17.91 137.52 15.371 A 546.695 546.695 0 0 0 137.518 14.178 Q 137.515 12.505 137.5 11.523 A 2713.408 2713.408 0 0 0 137.466 9.293 A 2471.779 2471.779 0 0 0 137.461 8.984 A 144.217 144.217 0 0 0 137.412 7.369 Q 137.296 4.201 137.087 3.358 A 2.17 2.17 0 0 0 137.08 3.33 Q 136.863 2.501 136.659 2.017 A 3.698 3.698 0 0 0 136.572 1.826 A 6.251 6.251 0 0 0 136.016 0.898 L 135.352 0 L 142.48 0 Q 141.758 2.578 141.563 10.762 A 9.275 9.275 0 0 1 143.763 9.956 A 7.878 7.878 0 0 1 145.479 9.766 A 14.338 14.338 0 0 1 146.732 9.817 Q 147.329 9.869 147.834 9.976 A 6.067 6.067 0 0 1 148.652 10.205 A 5.853 5.853 0 0 1 150.267 11.087 A 5.408 5.408 0 0 1 150.723 11.484 A 5.747 5.747 0 0 1 152.2 14.049 Q 152.46 14.96 152.508 16.05 A 11.483 11.483 0 0 1 152.52 16.563 A 20.073 20.073 0 0 1 152.152 20.528 Q 151.663 22.951 150.526 24.818 A 10.981 10.981 0 0 1 149.102 26.68 Q 146.035 29.883 141.445 29.883 Z M 141.582 15.898 L 141.523 23.086 Q 141.523 26.855 141.719 28.379 A 5.777 5.777 0 0 0 144.838 26.507 A 8.925 8.925 0 0 0 146.016 24.805 A 12.461 12.461 0 0 0 147.256 21.4 Q 147.637 19.63 147.637 17.539 A 28.34 28.34 0 0 0 147.612 16.301 Q 147.562 15.18 147.416 14.444 A 4.432 4.432 0 0 0 147.236 13.779 Q 146.836 12.695 146.279 12.207 A 1.947 1.947 0 0 0 144.951 11.719 A 3.706 3.706 0 0 0 144.269 11.779 A 2.814 2.814 0 0 0 143.594 11.992 A 3.01 3.01 0 0 0 142.644 12.696 A 3.498 3.498 0 0 0 142.559 12.793 A 3.922 3.922 0 0 0 141.769 14.343 Q 141.582 15.044 141.582 15.898 Z" id="6" vector-effect="non-scaling-stroke"/><path d="M 163.359 17.52 L 165.117 18.516 Q 166.86 19.492 167.759 20.215 A 5.757 5.757 0 0 1 168.223 20.625 A 6.816 6.816 0 0 1 169.159 21.774 Q 169.883 22.909 169.883 24.121 A 5.794 5.794 0 0 1 169.433 26.427 A 5.523 5.523 0 0 1 168.242 28.164 Q 166.172 30.273 162.031 30.273 Q 159.572 30.273 157.911 29.525 A 5.673 5.673 0 0 1 156.367 28.516 Q 155.82 28.008 155.586 27.5 A 4.518 4.518 0 0 1 156.285 25.548 A 6.085 6.085 0 0 1 156.895 24.746 A 6.819 6.819 0 0 1 157.55 24.097 Q 158.321 23.438 159.063 23.301 A 1.346 1.346 0 0 0 159.023 23.474 Q 158.993 23.654 158.986 23.91 A 5.856 5.856 0 0 0 158.984 24.063 Q 158.984 24.569 159.276 25.318 A 6.663 6.663 0 0 0 159.277 25.322 Q 159.57 26.074 160.117 26.719 A 4.97 4.97 0 0 0 160.957 27.532 A 3.163 3.163 0 0 0 162.891 28.203 A 5.368 5.368 0 0 0 163.714 28.144 Q 164.135 28.079 164.47 27.94 A 2.142 2.142 0 0 0 165.156 27.5 A 2.569 2.569 0 0 0 165.624 26.896 A 2.043 2.043 0 0 0 165.879 25.898 Q 165.879 25 165.469 24.395 A 4.605 4.605 0 0 0 164.871 23.686 A 5.875 5.875 0 0 0 164.385 23.262 A 11.507 11.507 0 0 0 163.495 22.634 A 14.294 14.294 0 0 0 162.852 22.246 L 161.094 21.25 A 29.076 29.076 0 0 1 160.059 20.61 Q 159.036 19.946 158.423 19.396 A 5.419 5.419 0 0 1 158.008 18.984 A 7.063 7.063 0 0 1 156.89 17.343 A 5.555 5.555 0 0 1 156.328 14.902 A 4.397 4.397 0 0 1 157.797 11.532 A 5.82 5.82 0 0 1 158.281 11.133 A 6.872 6.872 0 0 1 161.093 9.931 A 9.552 9.552 0 0 1 162.91 9.766 L 166.348 10 A 8.141 8.141 0 0 0 166.925 9.981 Q 167.475 9.942 167.819 9.821 A 1.357 1.357 0 0 0 168.086 9.697 A 3.688 3.688 0 0 0 168.635 9.285 A 3.122 3.122 0 0 0 168.906 9.004 A 5.905 5.905 0 0 1 169.391 10.689 A 5.383 5.383 0 0 1 169.434 11.367 Q 169.434 12.168 169.385 12.783 A 9.696 9.696 0 0 1 169.326 13.34 Q 169.219 14.121 169.004 14.844 A 7.889 7.889 0 0 1 168.59 15.946 Q 168.325 16.511 167.989 16.945 A 4.076 4.076 0 0 1 167.617 17.363 A 29 29 0 0 0 167.347 16.141 Q 166.899 14.315 166.396 13.571 A 2.155 2.155 0 0 0 166.299 13.438 A 5.89 5.89 0 0 0 165.82 12.9 Q 165.561 12.645 165.302 12.468 A 2.622 2.622 0 0 0 164.873 12.227 Q 164.16 11.914 163.359 11.914 A 6.763 6.763 0 0 0 162.843 11.933 Q 162.592 11.952 162.379 11.991 A 2.916 2.916 0 0 0 162.051 12.07 A 2.877 2.877 0 0 0 161.496 12.304 A 2.424 2.424 0 0 0 161.172 12.52 A 2.716 2.716 0 0 0 160.734 12.934 Q 160.332 13.417 160.332 13.984 A 2.749 2.749 0 0 0 160.428 14.726 A 2.244 2.244 0 0 0 160.742 15.4 A 4.516 4.516 0 0 0 161.322 16.08 A 5.794 5.794 0 0 0 161.826 16.514 A 12.136 12.136 0 0 0 162.692 17.118 A 15.229 15.229 0 0 0 163.359 17.52 Z" id="7" vector-effect="non-scaling-stroke"/></g></svg>
